<svg id="图层_1" data-name="图层 1" xmlns="http://www.w3.org/2000/svg" viewBox="0 0 24 24"><title>Webvicon 转形状</title><path d="M7.57,3H7.25A4.26,4.26,0,0,0,3,7.57,4.39,4.39,0,0,0,7.45,11.5H10.5a1,1,0,0,0,1-1v-3A4.39,4.39,0,0,0,7.57,3ZM9.5,9a.5.5,0,0,1-.5.5H7.45A2.39,2.39,0,0,1,5,7.42a2.22,2.22,0,0,1,.59-1.7A2.25,2.25,0,0,1,7.25,5h.17A2.39,2.39,0,0,1,9.5,7.45Z"/><path d="M13.5,11.5h3.05A4.39,4.39,0,0,0,21,7.57,4.26,4.26,0,0,0,16.75,3h-.32A4.39,4.39,0,0,0,12.5,7.45V10.5A1,1,0,0,0,13.5,11.5Zm1-4A2.39,2.39,0,0,1,16.58,5h.17a2.25,2.25,0,0,1,1.65.72A2.22,2.22,0,0,1,19,7.42,2.39,2.39,0,0,1,16.55,9.5H15a.5.5,0,0,1-.5-.5Z"/><path d="M10.5,12.5h-3A4.39,4.39,0,0,0,3,16.43,4.26,4.26,0,0,0,7.25,21h.32a4.39,4.39,0,0,0,3.93-4.44V13.5A1,1,0,0,0,10.5,12.5Zm-1,4.05A2.39,2.39,0,0,1,7.42,19H7.25a2.25,2.25,0,0,1-1.65-.72A2.22,2.22,0,0,1,5,16.58,2.39,2.39,0,0,1,7.45,14.5H9a.5.5,0,0,1,.5.5Z"/><path d="M16.55,12.5H13.5a1,1,0,0,0-1,1v3.05A4.39,4.39,0,0,0,16.43,21h.32A4.26,4.26,0,0,0,21,16.43,4.39,4.39,0,0,0,16.55,12.5Zm1.85,5.78a2.25,2.25,0,0,1-1.65.72h-.17a2.39,2.39,0,0,1-2.08-2.44V15a.5.5,0,0,1,.5-.5h1.55A2.39,2.39,0,0,1,19,16.58,2.22,2.22,0,0,1,18.4,18.28Z"/></svg>