<?xml version="1.0" standalone="no"?><!DOCTYPE svg PUBLIC "-//W3C//DTD SVG 1.1//EN" "http://www.w3.org/Graphics/SVG/1.1/DTD/svg11.dtd"><svg t="1540436695220" class="icon" style="" viewBox="0 0 1024 1024" version="1.1" xmlns="http://www.w3.org/2000/svg" p-id="3924" xmlns:xlink="http://www.w3.org/1999/xlink" width="1000" height="1000"><defs><style type="text/css"></style></defs><path d="M512 362.666667a149.333333 149.333333 0 1 0 149.333333 149.333333A149.333333 149.333333 0 0 0 512 362.666667z m0 213.333333a64 64 0 1 1 64-64 64 64 0 0 1-64 64z" p-id="3925"></path><path d="M838.826667 512a136.96 136.96 0 0 1 29.44-85.333333 42.666667 42.666667 0 0 0 6.826666-40.533334 384 384 0 0 0-73.813333-128 42.666667 42.666667 0 0 0-38.4-14.506666 135.253333 135.253333 0 0 1-85.333333-16.64 132.266667 132.266667 0 0 1-58.026667-67.413334 42.666667 42.666667 0 0 0-31.573333-26.026666 373.76 373.76 0 0 0-147.626667 0 42.666667 42.666667 0 0 0-31.573333 26.026666 133.973333 133.973333 0 0 1-60.16 69.12 135.68 135.68 0 0 1-85.333334 16.64 42.666667 42.666667 0 0 0-38.4 14.506667 384 384 0 0 0-73.813333 128 42.666667 42.666667 0 0 0 6.826667 40.533333 134.826667 134.826667 0 0 1 0 168.106667 42.666667 42.666667 0 0 0-6.826667 40.533333 384 384 0 0 0 73.813333 128 42.666667 42.666667 0 0 0 38.4 14.506667 134.826667 134.826667 0 0 1 145.493334 85.333333 42.666667 42.666667 0 0 0 31.573333 26.026667 379.306667 379.306667 0 0 0 147.626667 0 42.666667 42.666667 0 0 0 31.573333-26.026667 134.826667 134.826667 0 0 1 145.493333-85.333333 42.666667 42.666667 0 0 0 38.4-14.506667 384 384 0 0 0 73.813334-128 42.666667 42.666667 0 0 0-6.826667-40.533333 136.96 136.96 0 0 1-31.573333-84.48z m-52.053334 116.48a286.293333 286.293333 0 0 1-36.693333 63.573333 213.333333 213.333333 0 0 0-117.333333 29.44 219.733333 219.733333 0 0 0-85.333334 85.333334 301.653333 301.653333 0 0 1-73.386666 0 219.733333 219.733333 0 0 0-85.333334-85.333334 215.893333 215.893333 0 0 0-117.333333-29.44 286.293333 286.293333 0 0 1-36.693333-63.573333 220.586667 220.586667 0 0 0 0-232.96 286.293333 286.293333 0 0 1 36.693333-63.573333 215.893333 215.893333 0 0 0 117.333333-29.44 219.733333 219.733333 0 0 0 85.333334-85.333334 301.653333 301.653333 0 0 1 73.386666 0 224 224 0 0 0 85.333334 87.466667 218.026667 218.026667 0 0 0 117.333333 29.013333 286.293333 286.293333 0 0 1 36.693333 63.573334 220.586667 220.586667 0 0 0 0 232.96z" p-id="3926"></path></svg>