<svg id="图层_1" data-name="图层 1" xmlns="http://www.w3.org/2000/svg" viewBox="0 0 24 24"><title>Webvicon 转形状</title><path d="M11.14,16a1,1,0,0,1-.72-.31L8.28,13.48a1,1,0,0,1,0-1.42,1,1,0,0,1,1.41,0l1.42,1.47,3.14-3.25a1,1,0,1,1,1.44,1.38l-3.86,4A1,1,0,0,1,11.14,16Z"/><path d="M12,5.63a25.14,25.14,0,0,0,6,2.81v4.25A6.17,6.17,0,0,1,12.37,19H12a6,6,0,0,1-6-6V8.44a25.14,25.14,0,0,0,6-2.81m0-2.24a1,1,0,0,0-.65.23A22.24,22.24,0,0,1,4.69,6.77a1,1,0,0,0-.69,1V13a8,8,0,0,0,8,8h.49A8.21,8.21,0,0,0,20,12.69v-5a1,1,0,0,0-.69-1,22.24,22.24,0,0,1-6.66-3.15A1,1,0,0,0,12,3.39Z"/></svg>