<svg id="图层_1" data-name="图层 1" xmlns="http://www.w3.org/2000/svg" viewBox="0 0 24 24"><title>Webvicon 转形状</title><path d="M19,4H5A2,2,0,0,0,3,6V16a2,2,0,0,0,2,2H8.59a1,1,0,0,1,.7.29l2,2a1,1,0,0,0,1.4,0l2-2a1,1,0,0,1,.7-.29H19a2,2,0,0,0,2-2V6A2,2,0,0,0,19,4Zm0,11.5a.5.5,0,0,1-.5.5H15.41a3,3,0,0,0-2.12.88L12,18.17l-1.29-1.29A3,3,0,0,0,8.59,16H5.5a.5.5,0,0,1-.5-.5v-9A.5.5,0,0,1,5.5,6h13a.5.5,0,0,1,.5.5Z"/><path d="M14,10H7a1,1,0,0,0,0,2h7a1,1,0,0,0,0-2Z"/><path d="M17,7H7A1,1,0,0,0,7,9H17a1,1,0,0,0,0-2Z"/></svg>