<svg id="图层_1" data-name="图层 1" xmlns="http://www.w3.org/2000/svg" viewBox="0 0 24 24"><title>Webvicon 转形状</title><path d="M12,8.5A3.5,3.5,0,1,0,15.5,12,3.5,3.5,0,0,0,12,8.5Zm0,5A1.5,1.5,0,1,1,13.5,12,1.5,1.5,0,0,1,12,13.5Z"/><path d="M19.66,12a3.21,3.21,0,0,1,.69-2,1,1,0,0,0,.16-.95,9,9,0,0,0-1.73-3,1,1,0,0,0-.9-.34,3.17,3.17,0,0,1-2-.39,3.1,3.1,0,0,1-1.36-1.58,1,1,0,0,0-.74-.61,8.76,8.76,0,0,0-3.46,0,1,1,0,0,0-.74.61A3.14,3.14,0,0,1,8.17,5.36a3.18,3.18,0,0,1-2,.39,1,1,0,0,0-.9.34,9,9,0,0,0-1.73,3,1,1,0,0,0,.16.95,3.16,3.16,0,0,1,0,3.94,1,1,0,0,0-.16.95,9,9,0,0,0,1.73,3,1,1,0,0,0,.9.34,3.16,3.16,0,0,1,3.41,2,1,1,0,0,0,.74.61,8.89,8.89,0,0,0,3.46,0,1,1,0,0,0,.74-.61,3.16,3.16,0,0,1,3.41-2,1,1,0,0,0,.9-.34,9,9,0,0,0,1.73-3,1,1,0,0,0-.16-.95A3.21,3.21,0,0,1,19.66,12Zm-1.22,2.73a6.71,6.71,0,0,1-.86,1.49,5,5,0,0,0-2.75.69,5.15,5.15,0,0,0-2,2,7.07,7.07,0,0,1-1.72,0,5.15,5.15,0,0,0-2-2,5.06,5.06,0,0,0-2.75-.69,6.71,6.71,0,0,1-.86-1.49,5.17,5.17,0,0,0,0-5.46,6.71,6.71,0,0,1,.86-1.49,5.06,5.06,0,0,0,2.75-.69,5.15,5.15,0,0,0,2-2,7.07,7.07,0,0,1,1.72,0,5.25,5.25,0,0,0,2,2.05,5.11,5.11,0,0,0,2.75.68,6.71,6.71,0,0,1,.86,1.49,5.17,5.17,0,0,0,0,5.46Z"/></svg>